# xmcd CD database file
#
# Track frame offsets:
#	150
#	20061
#	38064
#	59077
#	81686
#	99311
#	114761
#	129192
#	146461
#	170543
#	183266
#
# Disc length: 2649 seconds
#
# Revision: 2
# Processed by: cddbd v1.5.2PL0 Copyright (c) Steve Scherf et al.
# Submitted via: CDex 1.70beta2
#
DISCID=900a570b
DTITLE=Sergio Pommerening - Musicas Para Consultorio - Lounge
DYEAR=2007
DGENRE=New Age
TTITLE0=Beauleu-S-Mer
TTITLE1=Moves
TTITLE2=Grooves Of Ibiza
TTITLE3=New Bossa In Monaco
TTITLE4=Walking in St Paul-Du-Vence
TTITLE5=Coll Feelings
TTITLE6=Secret Gardens
TTITLE7=Once Upon a Time
TTITLE8=Mediterranee Voices
TTITLE9=Synchronizing
TTITLE10=Feeling The Future
EXTD=YEAR: 2007
EXTT0=
EXTT1=
EXTT2=
EXTT3=
EXTT4=
EXTT5=
EXTT6=
EXTT7=
EXTT8=
EXTT9=
EXTT10=
PLAYORDER=
